<svg width="20" height="20" viewBox="0 0 20 20" fill="none" xmlns="http://www.w3.org/2000/svg">
<path d="M8.58337 17.5C8.72286 17.7537 8.92791 17.9653 9.17712 18.1127C9.42632 18.2601 9.71052 18.3378 10 18.3378C10.2896 18.3378 10.5738 18.2601 10.823 18.1127C11.0722 17.9653 11.2772 17.7537 11.4167 17.5M5 6.66669C5 5.34061 5.52678 4.06884 6.46447 3.13115C7.40215 2.19347 8.67392 1.66669 10 1.66669C11.3261 1.66669 12.5979 2.19347 13.5355 3.13115C14.4732 4.06884 15 5.34061 15 6.66669C15 12.5 17.5 14.1667 17.5 14.1667H2.5C2.5 14.1667 5 12.5 5 6.66669Z" stroke="#FAFAFA" stroke-width="1.33" stroke-linecap="round" stroke-linejoin="round"/>
</svg>
