<svg width="20" height="21" viewBox="0 0 20 21" fill="none" xmlns="http://www.w3.org/2000/svg">
<path d="M12.4997 2.16663H4.99967C4.55765 2.16663 4.13372 2.34222 3.82116 2.65478C3.5086 2.96734 3.33301 3.39127 3.33301 3.83329V17.1666C3.33301 17.6087 3.5086 18.0326 3.82116 18.3451C4.13372 18.6577 4.55765 18.8333 4.99967 18.8333H14.9997C15.4417 18.8333 15.8656 18.6577 16.1782 18.3451C16.4907 18.0326 16.6663 17.6087 16.6663 17.1666V6.33329L12.4997 2.16663Z" fill="#26A69A"/>
<path d="M11.6663 2.16663V5.49996C11.6663 5.94199 11.8419 6.36591 12.1545 6.67847C12.4671 6.99103 12.891 7.16663 13.333 7.16663H16.6663" fill="#26A69A"/>
<path d="M11.6663 2.16663V5.49996C11.6663 5.94199 11.8419 6.36591 12.1545 6.67847C12.4671 6.99103 12.891 7.16663 13.333 7.16663H16.6663M12.4997 2.16663H4.99967C4.55765 2.16663 4.13372 2.34222 3.82116 2.65478C3.5086 2.96734 3.33301 3.39127 3.33301 3.83329V17.1666C3.33301 17.6087 3.5086 18.0326 3.82116 18.3451C4.13372 18.6577 4.55765 18.8333 4.99967 18.8333H14.9997C15.4417 18.8333 15.8656 18.6577 16.1782 18.3451C16.4907 18.0326 16.6663 17.6087 16.6663 17.1666V6.33329L12.4997 2.16663Z" stroke="#009688" stroke-width="1.33" stroke-linecap="round" stroke-linejoin="round"/>
</svg>
