<svg width="18" height="18" viewBox="0 0 18 18" fill="none" xmlns="http://www.w3.org/2000/svg">
<path d="M5.66699 9.00004H5.67533M9.00032 9.00004H9.00866M12.3337 9.00004H12.342M5.58366 15.6667C7.17414 16.4826 9.00373 16.7036 10.7427 16.2899C12.4817 15.8762 14.0158 14.8549 15.0685 13.4102C16.1211 11.9655 16.6232 10.1923 16.4841 8.41021C16.3451 6.62809 15.5741 4.95422 14.3102 3.69024C13.0462 2.42626 11.3723 1.65529 9.59019 1.51626C7.80807 1.37723 6.03488 1.87928 4.59018 2.93195C3.14547 3.98462 2.12423 5.51867 1.71051 7.25767C1.29679 8.99668 1.51778 10.8263 2.33366 12.4167L0.666992 17.3334L5.58366 15.6667Z" stroke="#FAFAFA" stroke-width="1.33" stroke-linecap="round" stroke-linejoin="round"/>
</svg>
