<svg width="20" height="20" viewBox="0 0 20 20" fill="none" xmlns="http://www.w3.org/2000/svg">
<path d="M3.33333 18.3334H16.6667C17.1087 18.3334 17.5326 18.1578 17.8452 17.8452C18.1577 17.5326 18.3333 17.1087 18.3333 16.6667V3.33335C18.3333 2.89133 18.1577 2.4674 17.8452 2.15484C17.5326 1.84228 17.1087 1.66669 16.6667 1.66669H6.66666C6.22464 1.66669 5.80071 1.84228 5.48815 2.15484C5.17559 2.4674 5 2.89133 5 3.33335V16.6667C5 17.1087 4.8244 17.5326 4.51184 17.8452C4.19928 18.1578 3.77536 18.3334 3.33333 18.3334ZM3.33333 18.3334C2.8913 18.3334 2.46738 18.1578 2.15482 17.8452C1.84226 17.5326 1.66666 17.1087 1.66666 16.6667V9.16669C1.66666 8.25002 2.41666 7.50002 3.33333 7.50002H5M15 11.6667H8.33333M12.5 15H8.33333M8.33333 5.00002H15V8.33335H8.33333V5.00002Z" stroke="#FAFAFA" stroke-width="1.33" stroke-linecap="round" stroke-linejoin="round"/>
</svg>
