<svg width="6" height="6" viewBox="0 0 6 6" fill="none" xmlns="http://www.w3.org/2000/svg">
<path fill-rule="evenodd" clip-rule="evenodd" d="M0.516374 0.711943H1.56308C1.60609 0.713258 1.64716 0.730168 1.67862 0.75952L5.38287 4.41617C5.39818 4.43123 5.41029 4.44923 5.41847 4.46908C5.42664 4.48894 5.43072 4.51025 5.43044 4.53172V5.626C5.43052 5.65904 5.42407 5.69178 5.41146 5.72232C5.39885 5.75287 5.38032 5.78062 5.35696 5.80399C5.33359 5.82736 5.30584 5.84588 5.27529 5.85849C5.24474 5.8711 5.21201 5.87755 5.17896 5.87748H4.13906C4.09604 5.87616 4.05498 5.85925 4.02351 5.8299L0.319267 2.17325C0.303953 2.15819 0.291843 2.14019 0.283667 2.12034C0.27549 2.10048 0.271416 2.07917 0.27169 2.0577V0.963423C0.27028 0.930597 0.275593 0.897829 0.287302 0.867131C0.299012 0.836432 0.316871 0.808449 0.339783 0.7849C0.362696 0.761352 0.390178 0.742733 0.420545 0.730187C0.450912 0.717642 0.483522 0.711433 0.516374 0.711943ZM3.09915 0.711943H5.17896C5.21201 0.711866 5.24474 0.718319 5.27529 0.730929C5.30584 0.74354 5.33359 0.762061 5.35696 0.785429C5.38032 0.808796 5.39885 0.836549 5.41146 0.867095C5.42407 0.897641 5.43052 0.930377 5.43044 0.963423V3.12479C5.19338 2.61042 4.87174 2.13944 4.47889 1.73146C4.07866 1.31751 3.61238 0.972972 3.09915 0.711943ZM2.59619 5.87748H0.516374C0.483328 5.87755 0.450591 5.8711 0.420046 5.85849C0.3895 5.84588 0.361746 5.82736 0.338379 5.80399C0.315011 5.78062 0.296491 5.75287 0.28388 5.72232C0.271269 5.69178 0.264816 5.65904 0.264893 5.626V3.46463C0.501177 3.97944 0.822905 4.45054 1.21644 4.85796C1.61982 5.26832 2.08547 5.6124 2.59619 5.87748Z" fill="#737373"/>
</svg>
