<svg width="18" height="18" viewBox="0 0 18 18" fill="none" xmlns="http://www.w3.org/2000/svg">
<path d="M9.48833 1.15502C9.17584 0.842438 8.75199 0.666781 8.31 0.666687H2.33333C1.8913 0.666687 1.46738 0.842282 1.15482 1.15484C0.842259 1.4674 0.666664 1.89133 0.666664 2.33335V8.31002C0.666759 8.75201 0.842415 9.17587 1.155 9.48835L8.40833 16.7417C8.78709 17.1181 9.29937 17.3293 9.83333 17.3293C10.3673 17.3293 10.8796 17.1181 11.2583 16.7417L16.7417 11.2584C17.118 10.8796 17.3293 10.3673 17.3293 9.83335C17.3293 9.29939 17.118 8.78712 16.7417 8.40835L9.48833 1.15502Z" stroke="#FAFAFA" stroke-width="1.33" stroke-linecap="round" stroke-linejoin="round"/>
<path d="M5.25 5.66669C5.48012 5.66669 5.66666 5.48014 5.66666 5.25002C5.66666 5.0199 5.48012 4.83335 5.25 4.83335C5.01988 4.83335 4.83333 5.0199 4.83333 5.25002C4.83333 5.48014 5.01988 5.66669 5.25 5.66669Z" stroke="#FAFAFA" stroke-width="1.33" stroke-linecap="round" stroke-linejoin="round"/>
</svg>
