<svg width="48" height="48" viewBox="0 0 48 48" fill="none" xmlns="http://www.w3.org/2000/svg">
<rect width="48" height="48" rx="24" fill="#E5E5E5"/>
<path d="M26.3327 12.3334V17C26.3327 17.6189 26.5785 18.2124 27.0161 18.65C27.4537 19.0875 28.0472 19.3334 28.666 19.3334H33.3327M27.4993 12.3334H16.9993C16.3805 12.3334 15.787 12.5792 15.3494 13.0168C14.9118 13.4544 14.666 14.0479 14.666 14.6667V33.3334C14.666 33.9522 14.9118 34.5457 15.3494 34.9833C15.787 35.4209 16.3805 35.6667 16.9993 35.6667H30.9994C31.6182 35.6667 32.2117 35.4209 32.6493 34.9833C33.0869 34.5457 33.3327 33.9522 33.3327 33.3334V18.1667L27.4993 12.3334Z" stroke="#404040" stroke-width="2" stroke-linecap="round" stroke-linejoin="round"/>
</svg>
