<svg width="20" height="21" viewBox="0 0 20 21" fill="none" xmlns="http://www.w3.org/2000/svg">
<path d="M18.3337 7.45827V17.1666C18.3337 17.6086 18.1581 18.0326 17.8455 18.3451C17.5329 18.6577 17.109 18.8333 16.667 18.8333H3.33366C2.89163 18.8333 2.46771 18.6577 2.15515 18.3451C1.84259 18.0326 1.66699 17.6086 1.66699 17.1666V7.45827C1.66833 7.12589 1.76902 6.80151 1.95613 6.52679C2.14323 6.25208 2.4082 6.03958 2.71699 5.9166L9.38366 3.24993C9.77965 3.09223 10.221 3.09223 10.617 3.24993L17.2837 5.9166C17.5925 6.03958 17.8574 6.25208 18.0445 6.52679C18.2316 6.80151 18.3323 7.12589 18.3337 7.45827Z" fill="#FEC84B"/>
<path d="M5.00033 15.5H15.0003H5.00033Z" fill="#FEC84B"/>
<path d="M5.00033 12.1667H15.0003H5.00033Z" fill="#FEC84B"/>
<path d="M15.0003 8.83335H5.00033V18.8334H15.0003V8.83335Z" fill="#FEC84B"/>
<path d="M5.00033 15.5H15.0003M5.00033 12.1667H15.0003M18.3337 7.45827V17.1666C18.3337 17.6086 18.1581 18.0326 17.8455 18.3451C17.5329 18.6577 17.109 18.8333 16.667 18.8333H3.33366C2.89163 18.8333 2.46771 18.6577 2.15515 18.3451C1.84259 18.0326 1.66699 17.6086 1.66699 17.1666V7.45827C1.66833 7.12589 1.76902 6.80151 1.95613 6.52679C2.14323 6.25208 2.4082 6.03958 2.71699 5.9166L9.38366 3.24993C9.77965 3.09223 10.221 3.09223 10.617 3.24993L17.2837 5.9166C17.5925 6.03958 17.8574 6.25208 18.0445 6.52679C18.2316 6.80151 18.3323 7.12589 18.3337 7.45827ZM5.00033 8.83335H15.0003V18.8334H5.00033V8.83335Z" stroke="#F79009" stroke-width="1.33" stroke-linecap="round" stroke-linejoin="round"/>
</svg>
